<?xml version="1.0" encoding="utf-8"?>
<!-- Generator: Adobe Illustrator 16.0.0, SVG Export Plug-In . SVG Version: 6.00 Build 0)  -->
<!DOCTYPE svg PUBLIC "-//W3C//DTD SVG 1.1//EN" "http://www.w3.org/Graphics/SVG/1.1/DTD/svg11.dtd">
<svg version="1.1" id="Layer_1" xmlns="http://www.w3.org/2000/svg" xmlns:xlink="http://www.w3.org/1999/xlink" x="0px" y="0px"
	 width="74.618px" height="20px" viewBox="0 0 74.618 20" enable-background="new 0 0 74.618 20" xml:space="preserve">
<g>
	<polygon fill-rule="evenodd" clip-rule="evenodd" fill="#FFFFFF" points="7.528,18.668 5.97,19.078 7.434,20 9.063,19.193 
		7.528,18.668 7.528,18.668 	"/>
	<polygon fill-rule="evenodd" clip-rule="evenodd" fill="#FFFFFF" points="7.663,16.53 4.038,17.31 7.431,19.079 11.25,17.541 
		7.663,16.53 7.663,16.53 	"/>
	<polygon fill-rule="evenodd" clip-rule="evenodd" fill="#FFFFFF" points="7.944,13.832 1.957,15.067 7.583,17.828 13.874,15.407 
		7.944,13.832 7.944,13.832 	"/>
	<polygon fill-rule="evenodd" clip-rule="evenodd" fill="#FFFFFF" points="7.775,11.085 0.032,12.73 2.218,13.846 7.934,12.708 
		13.246,14.07 15.445,13.194 7.775,11.085 7.775,11.085 	"/>
	<polygon fill-rule="evenodd" clip-rule="evenodd" fill="#FFFFFF" points="7.929,12.673 2.212,13.81 7.3,16.39 13.241,14.035 
		7.929,12.673 7.929,12.673 	"/>
	<polygon fill-rule="evenodd" clip-rule="evenodd" fill="#FFFFFF" points="7.726,0 10.833,4.663 7.564,5.753 7.726,0 7.726,0 	"/>
	<polygon fill-rule="evenodd" clip-rule="evenodd" fill="#FFFFFF" points="7.726,0 7.564,5.77 4.739,4.35 7.726,0 7.726,0 	"/>
	<polygon fill-rule="evenodd" clip-rule="evenodd" fill="#FFFFFF" points="11.002,4.948 13.25,8.29 7.438,10.227 7.524,6.089 
		11.002,4.948 11.002,4.948 	"/>
	<polygon fill-rule="evenodd" clip-rule="evenodd" fill="#FFFFFF" points="4.577,4.585 7.555,6.081 7.438,10.22 2.435,7.705 
		4.577,4.585 4.577,4.585 	"/>
	<polygon fill-rule="evenodd" clip-rule="evenodd" fill="#FFFFFF" points="13.412,8.534 15.481,11.641 7.307,14.903 7.43,10.527 
		13.412,8.534 13.412,8.534 	"/>
	<polygon fill-rule="evenodd" clip-rule="evenodd" fill="#FFFFFF" points="2.272,7.94 7.43,10.532 7.307,14.903 0,11.25 2.272,7.94 
		2.272,7.94 	"/>
	<g>
		<path fill="#FFFFFF" d="M21.526,13.812l-0.147-0.993h-0.056c-0.552,0.699-1.49,1.195-2.649,1.195
			c-1.804,0-2.816-1.306-2.816-2.668c0-2.264,2.006-3.404,5.319-3.386V7.812c0-0.589-0.239-1.564-1.822-1.564
			c-0.883,0-1.804,0.276-2.411,0.663l-0.441-1.473c0.663-0.405,1.822-0.791,3.239-0.791c2.871,0,3.699,1.822,3.699,3.772v3.239
			c0,0.81,0.037,1.602,0.129,2.153H21.526z M21.232,9.431c-1.602-0.036-3.129,0.314-3.129,1.674c0,0.884,0.571,1.29,1.289,1.29
			c0.901,0,1.563-0.59,1.767-1.233c0.054-0.167,0.073-0.35,0.073-0.498V9.431z"/>
		<path fill="#FFFFFF" d="M24.36,7.518c0-1.031-0.018-1.896-0.073-2.669h1.987l0.11,1.344h0.056c0.387-0.7,1.362-1.546,2.853-1.546
			c1.564,0,3.184,1.012,3.184,3.846v5.318h-2.264V8.751c0-1.288-0.478-2.264-1.711-2.264c-0.901,0-1.527,0.644-1.767,1.325
			c-0.073,0.203-0.092,0.479-0.092,0.736v5.263H24.36V7.518z"/>
		<path fill="#FFFFFF" d="M38.476,13.812l-0.146-0.993h-0.055c-0.552,0.699-1.491,1.195-2.65,1.195
			c-1.803,0-2.816-1.306-2.816-2.668c0-2.264,2.006-3.404,5.318-3.386V7.812c0-0.589-0.239-1.564-1.822-1.564
			c-0.883,0-1.803,0.276-2.411,0.663l-0.441-1.473c0.663-0.405,1.821-0.791,3.239-0.791c2.871,0,3.699,1.822,3.699,3.772v3.239
			c0,0.81,0.037,1.602,0.129,2.153H38.476z M38.182,9.431c-1.601-0.036-3.129,0.314-3.129,1.674c0,0.884,0.571,1.29,1.289,1.29
			c0.902,0,1.564-0.59,1.767-1.233c0.055-0.167,0.074-0.35,0.074-0.498V9.431z"/>
		<path fill="#FFFFFF" d="M41.311,0.745h2.281v13.066h-2.281V0.745z"/>
		<path fill="#FFFFFF" d="M46.003,4.849l1.619,4.804c0.184,0.552,0.369,1.233,0.497,1.748h0.056
			c0.146-0.515,0.313-1.177,0.479-1.767l1.399-4.785h2.428l-2.245,6.11c-1.232,3.35-2.061,4.841-3.129,5.761
			c-0.883,0.791-1.803,1.085-2.374,1.159l-0.515-1.914c0.387-0.092,0.865-0.295,1.324-0.627c0.423-0.274,0.921-0.808,1.233-1.416
			c0.093-0.165,0.148-0.294,0.148-0.404c0-0.092-0.019-0.222-0.13-0.442l-3.275-8.226H46.003z"/>
		<path fill="#FFFFFF" d="M51.469,12.505l3.367-4.306c0.46-0.552,0.848-0.994,1.326-1.509V6.653H51.8V4.849h7.122v1.38l-3.293,4.214
			c-0.442,0.534-0.865,1.049-1.325,1.528v0.037h4.729v1.803h-7.564V12.505z"/>
		<path fill="#FFFFFF" d="M60.598,9.965c0.055,1.62,1.325,2.319,2.76,2.319c1.05,0,1.805-0.147,2.485-0.404l0.331,1.564
			c-0.773,0.313-1.841,0.551-3.129,0.551c-2.908,0-4.619-1.784-4.619-4.527c0-2.484,1.509-4.821,4.379-4.821
			c2.908,0,3.866,2.393,3.866,4.361c0,0.423-0.037,0.755-0.073,0.957H60.598z M64.536,8.382c0.017-0.828-0.35-2.189-1.858-2.189
			c-1.399,0-1.988,1.27-2.08,2.189H64.536z"/>
	</g>
	<g>
		<path fill="#FFFFFF" d="M67.266,3.994c0-0.934-0.018-1.717-0.067-2.417h1.801l0.1,1.217h0.051c0.35-0.633,1.233-1.4,2.584-1.4
			c1.417,0,2.885,0.917,2.885,3.484v4.819h-2.051V5.111c0-1.167-0.435-2.051-1.551-2.051c-0.816,0-1.385,0.584-1.601,1.201
			c-0.066,0.184-0.083,0.434-0.083,0.667v4.769h-2.067V3.994z"/>
	</g>
</g>
</svg>
